# xmcd
#
# Track frame offsets:
#	150
#	16014
#	32468
#	49414
#	64588
#
# Disc length: 1337 seconds
#
# Revision: 0
# Processed by: cddbd v1.5.1PL2 Copyright (c) Steve Scherf et al.
# Submitted via: SynApp - FreeCDDB Version: 2.1
#
DISCID=33053705
DTITLE=mr. freeze - Probe 140903
DYEAR=2003
DGENRE=bluesrock
TTITLE0=1
TTITLE1=2
TTITLE2=3
TTITLE3=4
TTITLE4=5
EXTD=
EXTT0=
EXTT1=
EXTT2=
EXTT3=
EXTT4=
PLAYORDER=
